BenchNine-Regular.ufo
<glyph name="quotesingle" format="1">
  <advance width="265"/>
  <unicode hex="0027"/>
  <outline>
    <contour>
      <point x="122" y="908" type="line" smooth="yes"/>
      <point x="108" y="908"/>
      <point x="103" y="935"/>
      <point x="101" y="974" type="curve"/>
      <point x="67" y="1367" type="line" smooth="yes"/>
      <point x="67" y="1375" type="line" smooth="yes"/>
      <point x="67" y="1409"/>
      <point x="78" y="1438"/>
      <point x="92" y="1438" type="curve" smooth="yes"/>
      <point x="174" y="1438" type="line" smooth="yes"/>
      <point x="188" y="1438"/>
      <point x="198" y="1407"/>
      <point x="198" y="1371" type="curve" smooth="yes"/>
      <point x="198" y="1366" type="line" smooth="yes"/>
      <point x="166" y="974" type="line" smooth="yes"/>
      <point x="163" y="935"/>
      <point x="160" y="908"/>
      <point x="145" y="908" type="curve" smooth="yes"/>
    </contour>
  </outline>
</glyph>
<glyph name="parenleft" format="1">
  <advance width="425"/>
  <unicode hex="0028"/>
  <outline>
    <contour>
      <point x="302" y="-143" type="curve" smooth="yes"/>
      <point x="157" y="-80"/>
      <point x="101" y="298"/>
      <point x="101" y="699" type="curve" smooth="yes"/>
      <point x="101" y="1099"/>
      <point x="157" y="1478"/>
      <point x="302" y="1540" type="curve" smooth="yes"/>
      <point x="303" y="1540"/>
      <point x="304" y="1541"/>
      <point x="305" y="1541" type="curve" smooth="yes"/>
      <point x="317" y="1541"/>
      <point x="328" y="1505"/>
      <point x="328" y="1470" type="curve" smooth="yes"/>
      <point x="328" y="1415" type="line" smooth="yes"/>
      <point x="328" y="1346"/>
      <point x="318" y="1336"/>
      <point x="297" y="1305" type="curve" smooth="yes"/>
      <point x="253" y="1239"/>
      <point x="218" y="1063"/>
      <point x="218" y="699" type="curve" smooth="yes"/>
      <point x="218" y="335"/>
      <point x="253" y="157"/>
      <point x="298" y="91" type="curve" smooth="yes"/>
      <point x="319" y="61"/>
      <point x="328" y="51"/>
      <point x="328" y="-18" type="curve" smooth="yes"/>
      <point x="328" y="-73" type="line" smooth="yes"/>
      <point x="328" y="-108"/>
      <point x="317" y="-144"/>
      <point x="305" y="-144" type="curve" smooth="yes"/>
      <point x="304" y="-144"/>
      <point x="303" y="-143"/>
    </contour>
  </outline>
</glyph>
<glyph name="one" format="1">
  <advance width="499"/>
  <unicode hex="0031"/>
  <outline>
    <contour>
      <point x="220" y="0" type="line" smooth="yes"/>
      <point x="206" y="0"/>
      <point x="197" y="24"/>
      <point x="197" y="67" type="curve" smooth="yes"/>
      <point x="197" y="1217" type="line" smooth="yes"/>
      <point x="197" y="1237"/>
      <point x="191" y="1246"/>
      <point x="183" y="1244" type="curve" smooth="yes"/>
      <point x="183" y="1244"/>
      <point x="97" y="1222"/>
      <point x="96" y="1222" type="curve" smooth="yes"/>
      <point x="82" y="1220"/>
      <point x="74" y="1228"/>
      <point x="74" y="1260" type="curve" smooth="yes"/>
      <point x="74" y="1337" type="line" smooth="yes"/>
      <point x="74" y="1363"/>
      <point x="84" y="1371"/>
      <point x="97" y="1374" type="curve" smooth="yes"/>
      <point x="325" y="1434" type="line" smooth="yes"/>
      <point x="330" y="1435"/>
      <point x="334" y="1436"/>
      <point x="338" y="1436" type="curve" smooth="yes"/>
      <point x="351" y="1436"/>
      <point x="358" y="1427"/>
      <point x="358" y="1394" type="curve" smooth="yes"/>
      <point x="358" y="67" type="line" smooth="yes"/>
      <point x="358" y="24"/>
      <point x="348" y="0"/>
      <point x="334" y="0" type="curve" smooth="yes"/>
    </contour>
  </outline>
</glyph>
<glyph name="four" format="1">
  <advance width="853"/>
  <unicode hex="0034"/>
  <outline>
    <contour>
      <point x="574" y="0" type="line" smooth="yes"/>
      <point x="550" y="0"/>
      <point x="537" y="13"/>
      <point x="537" y="56" type="curve" smooth="yes"/>
      <point x="537" y="283" type="line"/>
      <point x="150" y="283" type="line" smooth="yes"/>
      <point x="120" y="283"/>
      <point x="95" y="303"/>
      <point x="95" y="337" type="curve" smooth="yes"/>
      <point x="95" y="341"/>
      <point x="95" y="345"/>
      <point x="96" y="350" type="curve" smooth="yes"/>
      <point x="236" y="1371" type="line"/>
      <point x="243" y="1413"/>
      <point x="249" y="1438"/>
      <point x="274" y="1438" type="curve" smooth="yes"/>
      <point x="336" y="1438" type="line" smooth="yes"/>
      <point x="359" y="1438"/>
      <point x="368" y="1413"/>
      <point x="368" y="1388" type="curve" smooth="yes"/>
      <point x="368" y="1382"/>
      <point x="368" y="1377"/>
      <point x="367" y="1371" type="curve" smooth="yes"/>
      <point x="249" y="432" type="line" smooth="yes"/>
      <point x="248" y="422"/>
      <point x="252" y="406"/>
      <point x="268" y="406" type="curve" smooth="yes"/>
      <point x="537" y="406" type="line"/>
      <point x="537" y="1380" type="line" smooth="yes"/>
      <point x="537" y="1423"/>
      <point x="550" y="1438"/>
      <point x="574" y="1438" type="curve" smooth="yes"/>
      <point x="644" y="1438" type="line" smooth="yes"/>
      <point x="668" y="1438"/>
      <point x="680" y="1423"/>
      <point x="680" y="1380" type="curve" smooth="yes"/>
      <point x="680" y="406" type="line"/>
      <point x="805" y="406" type="line" smooth="yes"/>
      <point x="839" y="406"/>
      <point x="853" y="392"/>
      <point x="853" y="354" type="curve" smooth="yes"/>
      <point x="853" y="332" type="line" smooth="yes"/>
      <point x="853" y="295"/>
      <point x="839" y="283"/>
      <point x="805" y="283" type="curve" smooth="yes"/>
      <point x="680" y="283" type="line"/>
      <point x="680" y="56" type="line" smooth="yes"/>
      <point x="680" y="13"/>
      <point x="668" y="0"/>
      <point x="644" y="0" type="curve" smooth="yes"/>
    </contour>
  </outline>
</glyph>
<glyph name="less" format="1">
  <advance width="895"/>
  <unicode hex="003C"/>
  <outline>
    <contour>
      <point x="484" y="132" type="curve" smooth="yes"/>
      <point x="478" y="132"/>
      <point x="471" y="138"/>
      <point x="462" y="146" type="curve"/>
      <point x="176" y="506" type="line"/>
      <point x="145" y="543"/>
      <point x="129" y="562"/>
      <point x="129" y="606" type="curve" smooth="yes"/>
      <point x="129" y="641" type="line" smooth="yes"/>
      <point x="129" y="685"/>
      <point x="146" y="702"/>
      <point x="177" y="740" type="curve"/>
      <point x="462" y="1120" type="line" smooth="yes"/>
      <point x="469" y="1128"/>
      <point x="477" y="1131"/>
      <point x="484" y="1131" type="curve" smooth="yes"/>
      <point x="500" y="1131"/>
      <point x="510" y="1114"/>
      <point x="510" y="1088" type="curve" smooth="yes"/>
      <point x="510" y="1045" type="line" smooth="yes"/>
      <point x="510" y="999"/>
      <point x="494" y="983"/>
      <point x="470" y="953" type="curve"/>
      <point x="241" y="639" type="line" smooth="yes"/>
      <point x="236" y="633"/>
      <point x="234" y="627"/>
      <point x="234" y="622" type="curve" smooth="yes"/>
      <point x="234" y="617"/>
      <point x="236" y="611"/>
      <point x="241" y="606" type="curve" smooth="yes"/>
      <point x="469" y="311" type="line"/>
      <point x="494" y="282"/>
      <point x="510" y="270"/>
      <point x="510" y="225" type="curve" smooth="yes"/>
      <point x="510" y="172" type="line" smooth="yes"/>
      <point x="510" y="149"/>
      <point x="500" y="132"/>
    </contour>
  </outline>
</glyph>
<glyph name="question" format="1">
  <advance width="755"/>
  <unicode hex="003F"/>
  <outline>
    <contour>
      <point x="245" y="0" type="line" smooth="yes"/>
      <point x="222" y="0"/>
      <point x="204" y="21"/>
      <point x="204" y="60" type="curve" smooth="yes"/>
      <point x="204" y="146" type="line" smooth="yes"/>
      <point x="204" y="186"/>
      <point x="222" y="206"/>
      <point x="245" y="206" type="curve" smooth="yes"/>
      <point x="328" y="206" type="line" smooth="yes"/>
      <point x="352" y="206"/>
      <point x="369" y="186"/>
      <point x="369" y="146" type="curve" smooth="yes"/>
      <point x="369" y="60" type="line" smooth="yes"/>
      <point x="369" y="21"/>
      <point x="352" y="0"/>
      <point x="328" y="0" type="curve" smooth="yes"/>
    </contour>
    <contour>
      <point x="262" y="503" type="curve"/>
      <point x="251" y="521"/>
      <point x="239" y="534"/>
      <point x="235" y="557" type="curve"/>
      <point x="225" y="572"/>
      <point x="236" y="595"/>
      <point x="241" y="602" type="curve"/>
      <point x="291" y="719"/>
      <point x="323" y="748"/>
      <point x="419" y="812" type="curve" smooth="yes"/>
      <point x="516" y="876"/>
      <point x="563" y="973"/>
      <point x="563" y="1077" type="curve"/>
      <point x="561" y="1227"/>
      <point x="470" y="1319"/>
      <point x="353" y="1319" type="curve" smooth="yes"/>
      <point x="272" y="1319"/>
      <point x="201" y="1292"/>
      <point x="136" y="1248" type="curve" smooth="yes"/>
      <point x="123" y="1239"/>
      <point x="115" y="1248"/>
      <point x="107" y="1266" type="curve"/>
      <point x="96" y="1266"/>
      <point x="78" y="1320"/>
      <point x="78" y="1334" type="curve" smooth="yes"/>
      <point x="78" y="1353"/>
      <point x="88" y="1371"/>
      <point x="105" y="1380" type="curve"/>
      <point x="175" y="1424"/>
      <point x="271" y="1459"/>
      <point x="356" y="1459" type="curve" smooth="yes"/>
      <point x="545" y="1459"/>
      <point x="690" y="1341"/>
      <point x="695" y="1080" type="curve"/>
      <point x="695" y="900"/>
      <point x="570" y="761"/>
      <point x="430" y="682" type="curve" smooth="yes"/>
      <point x="361" y="642"/>
      <point x="333" y="583"/>
      <point x="302" y="511" type="curve"/>
      <point x="299" y="507"/>
      <point x="291" y="494"/>
      <point x="279" y="494" type="curve" smooth="yes"/>
      <point x="274" y="494"/>
      <point x="268" y="496"/>
    </contour>
  </outline>
</glyph>
<glyph name="A" format="1">
  <advance width="796"/>
  <unicode hex="0041"/>
  <outline>
    <contour>
      <point x="282" y="436" type="curve" smooth="yes"/>
      <point x="515" y="436" type="line" smooth="yes"/>
      <point x="518" y="436"/>
      <point x="520" y="443"/>
      <point x="520" y="450" type="curve" smooth="yes"/>
      <point x="520" y="453"/>
      <point x="520" y="456"/>
      <point x="518" y="457" type="curve"/>
      <point x="402" y="1252" type="line" smooth="yes"/>
      <point x="401" y="1256"/>
      <point x="401" y="1258"/>
      <point x="400" y="1258" type="curve" smooth="yes"/>
      <point x="398" y="1258"/>
      <point x="397" y="1255"/>
      <point x="397" y="1253" type="curve" smooth="yes"/>
      <point x="270" y="460" type="line" smooth="yes"/>
      <point x="269" y="456"/>
      <point x="269" y="453"/>
      <point x="269" y="451" type="curve" smooth="yes"/>
      <point x="269" y="444"/>
      <point x="272" y="436"/>
    </contour>
    <contour>
      <point x="70" y="0" type="line" smooth="yes"/>
      <point x="61" y="0"/>
      <point x="55" y="7"/>
      <point x="55" y="30" type="curve" smooth="yes"/>
      <point x="55" y="44" type="line" smooth="yes"/>
      <point x="55" y="49"/>
      <point x="55" y="54"/>
      <point x="56" y="60" type="curve" smooth="yes"/>
      <point x="291" y="1386" type="line" smooth="yes"/>
      <point x="299" y="1427"/>
      <point x="311" y="1438"/>
      <point x="327" y="1438" type="curve" smooth="yes"/>
      <point x="482" y="1438" type="line" smooth="yes"/>
      <point x="498" y="1438"/>
      <point x="511" y="1427"/>
      <point x="518" y="1386" type="curve" smooth="yes"/>
      <point x="745" y="60" type="line" smooth="yes"/>
      <point x="746" y="49"/>
      <point x="750" y="38"/>
      <point x="750" y="29" type="curve" smooth="yes"/>
      <point x="750" y="7"/>
      <point x="744" y="0"/>
      <point x="734" y="0" type="curve" smooth="yes"/>
      <point x="610" y="0" type="line" smooth="yes"/>
      <point x="597" y="0"/>
      <point x="582" y="6"/>
      <point x="576" y="45" type="curve" smooth="yes"/>
      <point x="535" y="314" type="line" smooth="yes"/>
      <point x="533" y="323"/>
      <point x="531" y="331"/>
      <point x="526" y="331" type="curve" smooth="yes"/>
      <point x="252" y="331" type="line" smooth="yes"/>
      <point x="248" y="331"/>
      <point x="246" y="322"/>
      <point x="244" y="313" type="curve" smooth="yes"/>
      <point x="198" y="45" type="line" smooth="yes"/>
      <point x="191" y="7"/>
      <point x="182" y="0"/>
      <point x="167" y="0" type="curve" smooth="yes"/>
    </contour>
  </outline>
</glyph>
<glyph name="C" format="1">
  <advance width="699"/>
  <unicode hex="0043"/>
  <outline>
    <contour>
      <point x="475" y="-14" type="curve" smooth="yes"/>
      <point x="279" y="-14"/>
      <point x="88" y="37"/>
      <point x="88" y="720" type="curve" smooth="yes"/>
      <point x="88" y="1382"/>
      <point x="282" y="1453"/>
      <point x="482" y="1453" type="curve" smooth="yes"/>
      <point x="540" y="1453"/>
      <point x="599" y="1441"/>
      <point x="630" y="1427" type="curve"/>
      <point x="633" y="1423"/>
      <point x="641" y="1422"/>
      <point x="641" y="1409" type="curve" smooth="yes"/>
      <point x="641" y="1312" type="line" smooth="yes"/>
      <point x="641" y="1301"/>
      <point x="638" y="1300"/>
      <point x="634" y="1300" type="curve" smooth="yes"/>
      <point x="631" y="1300"/>
      <point x="575" y="1321"/>
      <point x="509" y="1321" type="curve" smooth="yes"/>
      <point x="369" y="1321"/>
      <point x="249" y="1255"/>
      <point x="249" y="720" type="curve" smooth="yes"/>
      <point x="249" y="180"/>
      <point x="349" y="117"/>
      <point x="493" y="117" type="curve" smooth="yes"/>
      <point x="539" y="117"/>
      <point x="586" y="124"/>
      <point x="620" y="136" type="curve" smooth="yes"/>
      <point x="622" y="136"/>
      <point x="628" y="122"/>
      <point x="628" y="119" type="curve" smooth="yes"/>
      <point x="628" y="25" type="line" smooth="yes"/>
      <point x="628" y="22"/>
      <point x="622" y="8"/>
      <point x="620" y="7" type="curve" smooth="yes"/>
      <point x="580" y="-8"/>
      <point x="521" y="-14"/>
    </contour>
  </outline>
</glyph>
<glyph name="D" format="1">
  <advance width="919"/>
  <unicode hex="0044"/>
  <outline>
    <contour>
      <point x="136" y="0" type="line" smooth="yes"/>
      <point x="122" y="0"/>
      <point x="112" y="4"/>
      <point x="112" y="42" type="curve" smooth="yes"/>
      <point x="112" y="1402" type="line" smooth="yes"/>
      <point x="112" y="1434"/>
      <point x="122" y="1438"/>
      <point x="136" y="1438" type="curve" smooth="yes"/>
      <point x="462" y="1438" type="line" smooth="yes"/>
      <point x="693" y="1438"/>
      <point x="832" y="1279"/>
      <point x="832" y="726" type="curve" smooth="yes"/>
      <point x="832" y="86"/>
      <point x="706" y="0"/>
      <point x="444" y="0" type="curve" smooth="yes"/>
    </contour>
    <contour>
      <point x="285" y="128" type="curve" smooth="yes"/>
      <point x="438" y="128" type="line" smooth="yes"/>
      <point x="617" y="128"/>
      <point x="672" y="252"/>
      <point x="672" y="725" type="curve" smooth="yes"/>
      <point x="672" y="1162"/>
      <point x="601" y="1310"/>
      <point x="443" y="1310" type="curve" smooth="yes"/>
      <point x="284" y="1310" type="line" smooth="yes"/>
      <point x="278" y="1310"/>
      <point x="273" y="1304"/>
      <point x="273" y="1290" type="curve" smooth="yes"/>
      <point x="273" y="150" type="line" smooth="yes"/>
      <point x="273" y="133"/>
      <point x="277" y="128"/>
    </contour>
  </outline>
</glyph>
<glyph name="H" format="1">
  <advance width="918"/>
  <unicode hex="0048"/>
  <outline>
    <contour>
      <point x="137" y="0" type="line" smooth="yes"/>
      <point x="122" y="0"/>
      <point x="112" y="4"/>
      <point x="112" y="47" type="curve" smooth="yes"/>
      <point x="112" y="1391" type="line" smooth="yes"/>
      <point x="112" y="1434"/>
      <point x="122" y="1438"/>
      <point x="137" y="1438" type="curve" smooth="yes"/>
      <point x="247" y="1438" type="line" smooth="yes"/>
      <point x="262" y="1438"/>
      <point x="273" y="1434"/>
      <point x="273" y="1391" type="curve" smooth="yes"/>
      <point x="273" y="834" type="line" smooth="yes"/>
      <point x="273" y="825"/>
      <point x="278" y="814"/>
      <point x="281" y="814" type="curve" smooth="yes"/>
      <point x="634" y="814" type="line" smooth="yes"/>
      <point x="638" y="814"/>
      <point x="645" y="827"/>
      <point x="645" y="836" type="curve" smooth="yes"/>
      <point x="645" y="1391" type="line" smooth="yes"/>
      <point x="645" y="1434"/>
      <point x="655" y="1438"/>
      <point x="671" y="1438" type="curve" smooth="yes"/>
      <point x="782" y="1438" type="line" smooth="yes"/>
      <point x="797" y="1438"/>
      <point x="806" y="1434"/>
      <point x="806" y="1391" type="curve" smooth="yes"/>
      <point x="806" y="47" type="line" smooth="yes"/>
      <point x="806" y="4"/>
      <point x="797" y="0"/>
      <point x="782" y="0" type="curve" smooth="yes"/>
      <point x="671" y="0" type="line" smooth="yes"/>
      <point x="655" y="0"/>
      <point x="644" y="4"/>
      <point x="644" y="47" type="curve" smooth="yes"/>
      <point x="644" y="664" type="line" smooth="yes"/>
      <point x="644" y="673"/>
      <point x="638" y="684"/>
      <point x="635" y="684" type="curve" smooth="yes"/>
      <point x="282" y="684" type="line" smooth="yes"/>
      <point x="279" y="684"/>
      <point x="274" y="674"/>
      <point x="274" y="665" type="curve" smooth="yes"/>
      <point x="274" y="47" type="line" smooth="yes"/>
      <point x="274" y="4"/>
      <point x="263" y="0"/>
      <point x="248" y="0" type="curve" smooth="yes"/>
    </contour>
  </outline>
</glyph>
<glyph name="M" format="1">
  <advance width="1080"/>
  <unicode hex="004D"/>
  <outline>
    <contour>
      <point x="133" y="0" type="line" smooth="yes"/>
      <point x="120" y="0"/>
      <point x="110" y="13"/>
      <point x="110" y="52" type="curve" smooth="yes"/>
      <point x="110" y="58" type="line" smooth="yes"/>
      <point x="154" y="1378" type="line"/>
      <point x="154" y="1420"/>
      <point x="163" y="1438"/>
      <point x="177" y="1438" type="curve" smooth="yes"/>
      <point x="301" y="1438" type="line" smooth="yes"/>
      <point x="317" y="1438"/>
      <point x="334" y="1429"/>
      <point x="342" y="1388" type="curve" smooth="yes"/>
      <point x="533" y="375" type="line" smooth="yes"/>
      <point x="534" y="369"/>
      <point x="542" y="369"/>
      <point x="543" y="375" type="curve" smooth="yes"/>
      <point x="733" y="1383" type="line"/>
      <point x="742" y="1423"/>
      <point x="757" y="1438"/>
      <point x="772" y="1438" type="curve" smooth="yes"/>
      <point x="901" y="1438" type="line" smooth="yes"/>
      <point x="915" y="1438"/>
      <point x="924" y="1420"/>
      <point x="924" y="1378" type="curve"/>
      <point x="970" y="58" type="line" smooth="yes"/>
      <point x="970" y="52" type="line" smooth="yes"/>
      <point x="970" y="14"/>
      <point x="961" y="0"/>
      <point x="946" y="0" type="curve" smooth="yes"/>
      <point x="862" y="0" type="line" smooth="yes"/>
      <point x="847" y="0"/>
      <point x="838" y="15"/>
      <point x="837" y="58" type="curve" smooth="yes"/>
      <point x="805" y="1153" type="line" smooth="yes"/>
      <point x="805" y="1157"/>
      <point x="800" y="1160"/>
      <point x="799" y="1156" type="curve" smooth="yes"/>
      <point x="599" y="54" type="line" smooth="yes"/>
      <point x="592" y="16"/>
      <point x="577" y="1"/>
      <point x="563" y="1" type="curve" smooth="yes"/>
      <point x="562" y="1"/>
      <point x="511" y="0"/>
      <point x="510" y="0" type="curve" smooth="yes"/>
      <point x="496" y="0"/>
      <point x="482" y="16"/>
      <point x="475" y="54" type="curve" smooth="yes"/>
      <point x="279" y="1149" type="line" smooth="yes"/>
      <point x="278" y="1153"/>
      <point x="275" y="1149"/>
      <point x="275" y="1144" type="curve" smooth="yes"/>
      <point x="241" y="58" type="line"/>
      <point x="241" y="15"/>
      <point x="234" y="0"/>
      <point x="219" y="0" type="curve" smooth="yes"/>
    </contour>
  </outline>
</glyph>
<glyph name="N" format="1">
  <advance width="930"/>
  <unicode hex="004E"/>
  <outline>
    <contour>
      <point x="137" y="0" type="line" smooth="yes"/>
      <point x="122" y="0"/>
      <point x="112" y="9"/>
      <point x="112" y="52" type="curve" smooth="yes"/>
      <point x="112" y="1387" type="line" smooth="yes"/>
      <point x="112" y="1430"/>
      <point x="122" y="1438"/>
      <point x="137" y="1438" type="curve" smooth="yes"/>
      <point x="248" y="1438" type="line" smooth="yes"/>
      <point x="260" y="1438"/>
      <point x="271" y="1426"/>
      <point x="279" y="1405" type="curve" smooth="yes"/>
      <point x="670" y="402" type="line" smooth="yes"/>
      <point x="672" y="398"/>
      <point x="677" y="408"/>
      <point x="677" y="415" type="curve" smooth="yes"/>
      <point x="677" y="1387" type="line" smooth="yes"/>
      <point x="677" y="1430"/>
      <point x="687" y="1438"/>
      <point x="703" y="1438" type="curve" smooth="yes"/>
      <point x="794" y="1438" type="line" smooth="yes"/>
      <point x="808" y="1438"/>
      <point x="818" y="1430"/>
      <point x="818" y="1387" type="curve" smooth="yes"/>
      <point x="818" y="46" type="line" smooth="yes"/>
      <point x="818" y="3"/>
      <point x="808" y="0"/>
      <point x="794" y="0" type="curve" smooth="yes"/>
      <point x="713" y="0" type="line" smooth="yes"/>
      <point x="702" y="0"/>
      <point x="683" y="21"/>
      <point x="675" y="42" type="curve" smooth="yes"/>
      <point x="262" y="1078" type="line" smooth="yes"/>
      <point x="260" y="1083"/>
      <point x="255" y="1074"/>
      <point x="255" y="1068" type="curve" smooth="yes"/>
      <point x="255" y="52" type="line" smooth="yes"/>
      <point x="255" y="9"/>
      <point x="245" y="0"/>
      <point x="229" y="0" type="curve" smooth="yes"/>
    </contour>
  </outline>
</glyph>
<glyph name="R" format="1">
  <advance width="901"/>
  <unicode hex="0052"/>
  <outline>
    <contour>
      <point x="282" y="799" type="curve" smooth="yes"/>
      <point x="431" y="799" type="line" smooth="yes"/>
      <point x="577" y="799"/>
      <point x="637" y="883"/>
      <point x="637" y="1061" type="curve" smooth="yes"/>
      <point x="637" y="1264"/>
      <point x="556" y="1310"/>
      <point x="401" y="1310" type="curve" smooth="yes"/>
      <point x="282" y="1310" type="line" smooth="yes"/>
      <point x="277" y="1310"/>
      <point x="273" y="1305"/>
      <point x="273" y="1293" type="curve" smooth="yes"/>
      <point x="273" y="821" type="line" smooth="yes"/>
      <point x="273" y="809"/>
      <point x="276" y="799"/>
    </contour>
    <contour>
      <point x="136" y="0" type="line" smooth="yes"/>
      <point x="122" y="0"/>
      <point x="112" y="5"/>
      <point x="112" y="44" type="curve" smooth="yes"/>
      <point x="112" y="1392" type="line" smooth="yes"/>
      <point x="112" y="1435"/>
      <point x="122" y="1438"/>
      <point x="136" y="1438" type="curve" smooth="yes"/>
      <point x="440" y="1438" type="line" smooth="yes"/>
      <point x="634" y="1438"/>
      <point x="798" y="1405"/>
      <point x="798" y="1066" type="curve" smooth="yes"/>
      <point x="798" y="861"/>
      <point x="731" y="790"/>
      <point x="637" y="752" type="curve"/>
      <point x="635" y="750"/>
      <point x="633" y="748"/>
      <point x="633" y="745" type="curve" smooth="yes"/>
      <point x="633" y="743"/>
      <point x="633" y="741"/>
      <point x="636" y="741" type="curve"/>
      <point x="715" y="703"/>
      <point x="791" y="661"/>
      <point x="797" y="433" type="curve" smooth="yes"/>
      <point x="798" y="406"/>
      <point x="799" y="62"/>
      <point x="799" y="52" type="curve" smooth="yes"/>
      <point x="799" y="18"/>
      <point x="791" y="0"/>
      <point x="779" y="0" type="curve" smooth="yes"/>
      <point x="779" y="0"/>
      <point x="663" y="-1"/>
      <point x="661" y="-1" type="curve" smooth="yes"/>
      <point x="648" y="-1"/>
      <point x="642" y="11"/>
      <point x="642" y="48" type="curve"/>
      <point x="639" y="90"/>
      <point x="637" y="471"/>
      <point x="629" y="509" type="curve"/>
      <point x="623" y="652"/>
      <point x="533" y="673"/>
      <point x="464" y="673" type="curve" smooth="yes"/>
      <point x="283" y="673" type="line" smooth="yes"/>
      <point x="277" y="673"/>
      <point x="273" y="667"/>
      <point x="273" y="654" type="curve" smooth="yes"/>
      <point x="273" y="44" type="line" smooth="yes"/>
      <point x="273" y="5"/>
      <point x="264" y="0"/>
      <point x="248" y="0" type="curve" smooth="yes"/>
    </contour>
  </outline>
</glyph>
<glyph name="bracketleft" format="1">
  <advance width="537"/>
  <unicode hex="005B"/>
  <outline>
    <contour>
      <point x="139" y="-104" type="line" smooth="yes"/>
      <point x="124" y="-104"/>
      <point x="112" y="-84"/>
      <point x="112" y="-41" type="curve" smooth="yes"/>
      <point x="112" y="1418" type="line" smooth="yes"/>
      <point x="112" y="1461"/>
      <point x="123" y="1481"/>
      <point x="139" y="1481" type="curve" smooth="yes"/>
      <point x="415" y="1481" type="line" smooth="yes"/>
      <point x="430" y="1481"/>
      <point x="440" y="1472"/>
      <point x="440" y="1429" type="curve" smooth="yes"/>
      <point x="440" y="1351" type="line" smooth="yes"/>
      <point x="440" y="1308"/>
      <point x="430" y="1299"/>
      <point x="415" y="1299" type="curve" smooth="yes"/>
      <point x="284" y="1299" type="line" smooth="yes"/>
      <point x="277" y="1299"/>
      <point x="273" y="1287"/>
      <point x="273" y="1267" type="curve" smooth="yes"/>
      <point x="273" y="103" type="line" smooth="yes"/>
      <point x="273" y="83"/>
      <point x="277" y="72"/>
      <point x="284" y="72" type="curve" smooth="yes"/>
      <point x="415" y="72" type="line" smooth="yes"/>
      <point x="430" y="72"/>
      <point x="440" y="57"/>
      <point x="440" y="14" type="curve" smooth="yes"/>
      <point x="440" y="-52" type="line" smooth="yes"/>
      <point x="440" y="-95"/>
      <point x="430" y="-104"/>
      <point x="415" y="-104" type="curve" smooth="yes"/>
    </contour>
  </outline>
</glyph>
<glyph name="underscore" format="1">
  <advance width="823"/>
  <unicode hex="005F"/>
  <outline>
    <contour>
      <point x="96" y="-87" type="line" smooth="yes"/>
      <point x="69" y="-87"/>
      <point x="54" y="-78"/>
      <point x="54" y="-45" type="curve" smooth="yes"/>
      <point x="54" y="-10" type="line" smooth="yes"/>
      <point x="54" y="24"/>
      <point x="69" y="33"/>
      <point x="96" y="33" type="curve" smooth="yes"/>
      <point x="728" y="33" type="line" smooth="yes"/>
      <point x="755" y="33"/>
      <point x="770" y="24"/>
      <point x="770" y="-9" type="curve" smooth="yes"/>
      <point x="770" y="-44" type="line" smooth="yes"/>
      <point x="770" y="-78"/>
      <point x="755" y="-87"/>
      <point x="728" y="-87" type="curve" smooth="yes"/>
    </contour>
  </outline>
</glyph>
<glyph name="a" format="1">
  <advance width="703"/>
  <unicode hex="0061"/>
  <outline>
    <contour>
      <point x="309" y="95" type="curve" smooth="yes"/>
      <point x="419" y="95"/>
      <point x="478" y="260"/>
      <point x="478" y="448" type="curve" smooth="yes"/>
      <point x="478" y="462"/>
      <point x="478" y="518"/>
      <point x="471" y="518" type="curve" smooth="yes"/>
      <point x="470" y="518"/>
      <point x="430" y="512"/>
      <point x="427" y="511" type="curve" smooth="yes"/>
      <point x="259" y="473"/>
      <point x="201" y="379"/>
      <point x="201" y="249" type="curve" smooth="yes"/>
      <point x="201" y="154"/>
      <point x="230" y="95"/>
    </contour>
    <contour>
      <point x="282" y="-12" type="curve" smooth="yes"/>
      <point x="146" y="-12"/>
      <point x="76" y="79"/>
      <point x="76" y="238" type="curve" smooth="yes"/>
      <point x="76" y="612"/>
      <point x="438" y="584"/>
      <point x="475" y="613" type="curve"/>
      <point x="475" y="668" type="line" smooth="yes"/>
      <point x="475" y="807"/>
      <point x="454" y="905"/>
      <point x="354" y="905" type="curve" smooth="yes"/>
      <point x="265" y="905"/>
      <point x="237" y="848"/>
      <point x="211" y="762" type="curve" smooth="yes"/>
      <point x="203" y="738"/>
      <point x="195" y="732"/>
      <point x="184" y="735" type="curve" smooth="yes"/>
      <point x="174" y="737"/>
      <point x="102" y="757"/>
      <point x="100" y="765" type="curve"/>
      <point x="94" y="771"/>
      <point x="96" y="800"/>
      <point x="101" y="819" type="curve" smooth="yes"/>
      <point x="135" y="939"/>
      <point x="201" y="1018"/>
      <point x="361" y="1018" type="curve" smooth="yes"/>
      <point x="524" y="1018"/>
      <point x="611" y="915"/>
      <point x="611" y="621" type="curve" smooth="yes"/>
      <point x="611" y="49" type="line" smooth="yes"/>
      <point x="611" y="14"/>
      <point x="603" y="0"/>
      <point x="590" y="0" type="curve" smooth="yes"/>
      <point x="566" y="0" type="line" smooth="yes"/>
      <point x="555" y="0"/>
      <point x="546" y="14"/>
      <point x="539" y="41" type="curve" smooth="yes"/>
      <point x="533" y="66"/>
      <point x="510" y="160"/>
      <point x="508" y="188" type="curve" smooth="yes"/>
      <point x="507" y="194"/>
      <point x="502" y="195"/>
      <point x="500" y="188" type="curve" smooth="yes"/>
      <point x="469" y="66"/>
      <point x="408" y="-12"/>
    </contour>
  </outline>
</glyph>
<glyph name="d" format="1">
  <advance width="749"/>
  <unicode hex="0064"/>
  <outline>
    <contour>
      <point x="511" y="509" type="curve" smooth="yes"/>
      <point x="511" y="777"/>
      <point x="450" y="905"/>
      <point x="365" y="905" type="curve" smooth="yes"/>
      <point x="286" y="905"/>
      <point x="224" y="836"/>
      <point x="224" y="509" type="curve" smooth="yes"/>
      <point x="224" y="177"/>
      <point x="280" y="102"/>
      <point x="366" y="102" type="curve" smooth="yes"/>
      <point x="454" y="102"/>
      <point x="511" y="241"/>
    </contour>
    <contour>
      <point x="335" y="-11" type="curve" smooth="yes"/>
      <point x="220" y="-11"/>
      <point x="79" y="76"/>
      <point x="79" y="502" type="curve" smooth="yes"/>
      <point x="79" y="938"/>
      <point x="204" y="1018"/>
      <point x="331" y="1018" type="curve" smooth="yes"/>
      <point x="404" y="1018"/>
      <point x="463" y="970"/>
      <point x="502" y="862" type="curve" smooth="yes"/>
      <point x="504" y="858"/>
      <point x="507" y="854"/>
      <point x="509" y="851" type="curve" smooth="yes"/>
      <point x="510" y="851"/>
      <point x="512" y="860"/>
      <point x="512" y="864" type="curve" smooth="yes"/>
      <point x="512" y="1376" type="line" smooth="yes"/>
      <point x="512" y="1419"/>
      <point x="521" y="1438"/>
      <point x="537" y="1438" type="curve" smooth="yes"/>
      <point x="623" y="1438" type="line" smooth="yes"/>
      <point x="638" y="1438"/>
      <point x="648" y="1419"/>
      <point x="648" y="1376" type="curve" smooth="yes"/>
      <point x="648" y="67" type="line" smooth="yes"/>
      <point x="648" y="24"/>
      <point x="641" y="0"/>
      <point x="626" y="0" type="curve" smooth="yes"/>
      <point x="604" y="0" type="line" smooth="yes"/>
      <point x="592" y="0"/>
      <point x="583" y="23"/>
      <point x="576" y="58" type="curve"/>
      <point x="572" y="84"/>
      <point x="558" y="184"/>
      <point x="556" y="204" type="curve" smooth="yes"/>
      <point x="555" y="212"/>
      <point x="554" y="218"/>
      <point x="552" y="220" type="curve"/>
      <point x="550" y="217"/>
      <point x="548" y="213"/>
      <point x="546" y="206" type="curve" smooth="yes"/>
      <point x="505" y="29"/>
      <point x="440" y="-11"/>
    </contour>
  </outline>
</glyph>
<glyph name="e" format="1">
  <advance width="704"/>
  <unicode hex="0065"/>
  <outline>
    <contour>
      <point x="227" y="562" type="curve" smooth="yes"/>
      <point x="493" y="562" type="line" smooth="yes"/>
      <point x="495" y="562"/>
      <point x="495" y="574"/>
      <point x="495" y="580" type="curve" smooth="yes"/>
      <point x="487" y="800"/>
      <point x="451" y="906"/>
      <point x="362" y="906" type="curve" smooth="yes"/>
      <point x="296" y="906"/>
      <point x="237" y="842"/>
      <point x="224" y="616" type="curve" smooth="yes"/>
      <point x="224" y="607"/>
      <point x="224" y="562"/>
    </contour>
    <contour>
      <point x="606" y="246" type="line" smooth="yes"/>
      <point x="606" y="108"/>
      <point x="535" y="-11"/>
      <point x="374" y="-11" type="curve" smooth="yes"/>
      <point x="232" y="-11"/>
      <point x="81" y="75"/>
      <point x="81" y="504" type="curve" smooth="yes"/>
      <point x="81" y="945"/>
      <point x="234" y="1019"/>
      <point x="364" y="1019" type="curve" smooth="yes"/>
      <point x="508" y="1019"/>
      <point x="614" y="906"/>
      <point x="614" y="545" type="curve" smooth="yes"/>
      <point x="614" y="516"/>
      <point x="611" y="473"/>
      <point x="584" y="473" type="curve" smooth="yes"/>
      <point x="230" y="473" type="line" smooth="yes"/>
      <point x="226" y="473"/>
      <point x="223" y="463"/>
      <point x="223" y="452" type="curve" smooth="yes"/>
      <point x="223" y="264"/>
      <point x="267" y="102"/>
      <point x="380" y="102" type="curve" smooth="yes"/>
      <point x="486" y="102"/>
      <point x="499" y="217"/>
      <point x="506" y="287" type="curve" smooth="yes"/>
      <point x="507" y="299"/>
      <point x="512" y="307"/>
      <point x="519" y="307" type="curve" smooth="yes"/>
      <point x="587" y="307" type="line" smooth="yes"/>
      <point x="604" y="307"/>
      <point x="606" y="288"/>
      <point x="606" y="266" type="curve" smooth="yes"/>
    </contour>
  </outline>
</glyph>
<glyph name="j" format="1">
  <advance width="427"/>
  <unicode hex="006A"/>
  <outline>
    <contour>
      <point x="186" y="1167" type="line" smooth="yes"/>
      <point x="171" y="1167"/>
      <point x="161" y="1175"/>
      <point x="161" y="1218" type="curve" smooth="yes"/>
      <point x="161" y="1322" type="line" smooth="yes"/>
      <point x="161" y="1365"/>
      <point x="171" y="1374"/>
      <point x="186" y="1374" type="curve" smooth="yes"/>
      <point x="284" y="1374" type="line" smooth="yes"/>
      <point x="299" y="1374"/>
      <point x="308" y="1365"/>
      <point x="308" y="1322" type="curve" smooth="yes"/>
      <point x="308" y="1218" type="line" smooth="yes"/>
      <point x="308" y="1175"/>
      <point x="299" y="1167"/>
      <point x="284" y="1167" type="curve" smooth="yes"/>
    </contour>
    <contour>
      <point x="58" y="-321" type="line" smooth="yes"/>
      <point x="43" y="-321"/>
      <point x="35" y="-302"/>
      <point x="35" y="-274" type="curve" smooth="yes"/>
      <point x="35" y="-242" type="line" smooth="yes"/>
      <point x="35" y="-216"/>
      <point x="42" y="-200"/>
      <point x="58" y="-200" type="curve" smooth="yes"/>
      <point x="97" y="-200" type="line" smooth="yes"/>
      <point x="145" y="-200"/>
      <point x="167" y="-151"/>
      <point x="167" y="1" type="curve" smooth="yes"/>
      <point x="167" y="946" type="line" smooth="yes"/>
      <point x="167" y="989"/>
      <point x="177" y="1006"/>
      <point x="191" y="1006" type="curve" smooth="yes"/>
      <point x="278" y="1006" type="line" smooth="yes"/>
      <point x="294" y="1006"/>
      <point x="303" y="989"/>
      <point x="303" y="946" type="curve" smooth="yes"/>
      <point x="303" y="0" type="line" smooth="yes"/>
      <point x="303" y="-292"/>
      <point x="233" y="-321"/>
      <point x="128" y="-321" type="curve" smooth="yes"/>
    </contour>
  </outline>
</glyph>
<glyph name="l" format="1">
  <advance width="376"/>
  <unicode hex="006C"/>
  <outline>
    <contour>
      <point x="165" y="0" type="line" smooth="yes"/>
      <point x="150" y="0"/>
      <point x="140" y="15"/>
      <point x="140" y="58" type="curve" smooth="yes"/>
      <point x="140" y="1375" type="line" smooth="yes"/>
      <point x="140" y="1418"/>
      <point x="150" y="1438"/>
      <point x="165" y="1438" type="curve" smooth="yes"/>
      <point x="252" y="1438" type="line" smooth="yes"/>
      <point x="267" y="1438"/>
      <point x="276" y="1418"/>
      <point x="276" y="1375" type="curve" smooth="yes"/>
      <point x="276" y="58" type="line" smooth="yes"/>
      <point x="276" y="15"/>
      <point x="267" y="0"/>
      <point x="252" y="0" type="curve" smooth="yes"/>
    </contour>
  </outline>
</glyph>
<glyph name="m" format="1">
  <advance width="1071"/>
  <unicode hex="006D"/>
  <outline>
    <contour>
      <point x="126" y="0" type="line" smooth="yes"/>
      <point x="111" y="0"/>
      <point x="101" y="20"/>
      <point x="101" y="63" type="curve" smooth="yes"/>
      <point x="101" y="935" type="line" smooth="yes"/>
      <point x="101" y="978"/>
      <point x="109" y="1006"/>
      <point x="124" y="1006" type="curve" smooth="yes"/>
      <point x="150" y="1006" type="line" smooth="yes"/>
      <point x="165" y="1006"/>
      <point x="175" y="993"/>
      <point x="180" y="948" type="curve" smooth="yes"/>
      <point x="195" y="805" type="line" smooth="yes"/>
      <point x="196" y="797"/>
      <point x="198" y="792"/>
      <point x="202" y="792" type="curve" smooth="yes"/>
      <point x="204" y="792"/>
      <point x="206" y="798"/>
      <point x="208" y="806" type="curve" smooth="yes"/>
      <point x="248" y="972"/>
      <point x="326" y="1018"/>
      <point x="400" y="1018" type="curve" smooth="yes"/>
      <point x="481" y="1018"/>
      <point x="542" y="968"/>
      <point x="578" y="817" type="curve" smooth="yes"/>
      <point x="580" y="812"/>
      <point x="581" y="810"/>
      <point x="583" y="810" type="curve" smooth="yes"/>
      <point x="586" y="810"/>
      <point x="587" y="811"/>
      <point x="589" y="817" type="curve" smooth="yes"/>
      <point x="626" y="963"/>
      <point x="710" y="1018"/>
      <point x="779" y="1018" type="curve" smooth="yes"/>
      <point x="897" y="1018"/>
      <point x="981" y="952"/>
      <point x="981" y="604" type="curve" smooth="yes"/>
      <point x="981" y="63" type="line" smooth="yes"/>
      <point x="981" y="20"/>
      <point x="971" y="0"/>
      <point x="956" y="0" type="curve" smooth="yes"/>
      <point x="869" y="0" type="line" smooth="yes"/>
      <point x="854" y="0"/>
      <point x="845" y="20"/>
      <point x="845" y="63" type="curve" smooth="yes"/>
      <point x="845" y="633" type="line" smooth="yes"/>
      <point x="845" y="847"/>
      <point x="814" y="905"/>
      <point x="750" y="905" type="curve" smooth="yes"/>
      <point x="675" y="905"/>
      <point x="610" y="791"/>
      <point x="610" y="598" type="curve" smooth="yes"/>
      <point x="610" y="63" type="line" smooth="yes"/>
      <point x="610" y="20"/>
      <point x="600" y="0"/>
      <point x="586" y="0" type="curve" smooth="yes"/>
      <point x="499" y="0" type="line" smooth="yes"/>
      <point x="484" y="0"/>
      <point x="474" y="20"/>
      <point x="474" y="63" type="curve" smooth="yes"/>
      <point x="474" y="624" type="line" smooth="yes"/>
      <point x="474" y="846"/>
      <point x="438" y="905"/>
      <point x="376" y="905" type="curve" smooth="yes"/>
      <point x="285" y="905"/>
      <point x="237" y="747"/>
      <point x="237" y="591" type="curve" smooth="yes"/>
      <point x="237" y="63" type="line" smooth="yes"/>
      <point x="237" y="20"/>
      <point x="226" y="0"/>
      <point x="212" y="0" type="curve" smooth="yes"/>
    </contour>
  </outline>
</glyph>
<glyph name="n" format="1">
  <advance width="724"/>
  <unicode hex="006E"/>
  <outline>
    <contour>
      <point x="126" y="0" type="line" smooth="yes"/>
      <point x="112" y="0"/>
      <point x="101" y="7"/>
      <point x="101" y="50" type="curve" smooth="yes"/>
      <point x="101" y="944" type="line" smooth="yes"/>
      <point x="101" y="987"/>
      <point x="110" y="1006"/>
      <point x="125" y="1006" type="curve" smooth="yes"/>
      <point x="144" y="1006" type="line" smooth="yes"/>
      <point x="160" y="1006"/>
      <point x="171" y="1002"/>
      <point x="178" y="957" type="curve"/>
      <point x="194" y="826" type="line"/>
      <point x="196" y="819"/>
      <point x="198" y="815"/>
      <point x="201" y="815" type="curve" smooth="yes"/>
      <point x="204" y="815"/>
      <point x="206" y="820"/>
      <point x="207" y="826" type="curve" smooth="yes"/>
      <point x="253" y="991"/>
      <point x="346" y="1018"/>
      <point x="423" y="1018" type="curve" smooth="yes"/>
      <point x="554" y="1018"/>
      <point x="629" y="930"/>
      <point x="629" y="603" type="curve" smooth="yes"/>
      <point x="629" y="50" type="line" smooth="yes"/>
      <point x="629" y="7"/>
      <point x="619" y="0"/>
      <point x="605" y="0" type="curve" smooth="yes"/>
      <point x="517" y="0" type="line" smooth="yes"/>
      <point x="502" y="0"/>
      <point x="493" y="7"/>
      <point x="493" y="50" type="curve" smooth="yes"/>
      <point x="493" y="624" type="line" smooth="yes"/>
      <point x="493" y="820"/>
      <point x="462" y="905"/>
      <point x="394" y="905" type="curve" smooth="yes"/>
      <point x="304" y="905"/>
      <point x="237" y="772"/>
      <point x="237" y="613" type="curve" smooth="yes"/>
      <point x="237" y="50" type="line" smooth="yes"/>
      <point x="237" y="7"/>
      <point x="227" y="0"/>
      <point x="213" y="0" type="curve" smooth="yes"/>
    </contour>
  </outline>
</glyph>
<glyph name="s" format="1">
  <advance width="581"/>
  <unicode hex="0073"/>
  <outline>
    <contour>
      <point x="533" y="256" type="curve" smooth="yes"/>
      <point x="533" y="95"/>
      <point x="442" y="-11"/>
      <point x="283" y="-11" type="curve" smooth="yes"/>
      <point x="188" y="-11"/>
      <point x="106" y="32"/>
      <point x="42" y="109" type="curve" smooth="yes"/>
      <point x="41" y="111"/>
      <point x="40" y="113"/>
      <point x="40" y="116" type="curve" smooth="yes"/>
      <point x="40" y="140"/>
      <point x="80" y="199"/>
      <point x="97" y="199" type="curve" smooth="yes"/>
      <point x="99" y="199"/>
      <point x="101" y="198"/>
      <point x="102" y="197" type="curve" smooth="yes"/>
      <point x="158" y="132"/>
      <point x="209" y="102"/>
      <point x="279" y="102" type="curve" smooth="yes"/>
      <point x="368" y="102"/>
      <point x="409" y="177"/>
      <point x="409" y="258" type="curve" smooth="yes"/>
      <point x="409" y="350"/>
      <point x="354" y="394"/>
      <point x="265" y="453" type="curve" smooth="yes"/>
      <point x="160" y="524"/>
      <point x="77" y="591"/>
      <point x="77" y="756" type="curve" smooth="yes"/>
      <point x="77" y="907"/>
      <point x="167" y="1018"/>
      <point x="303" y="1018" type="curve" smooth="yes"/>
      <point x="386" y="1018"/>
      <point x="455" y="982"/>
      <point x="510" y="924" type="curve" smooth="yes"/>
      <point x="513" y="921"/>
      <point x="514" y="917"/>
      <point x="514" y="912" type="curve" smooth="yes"/>
      <point x="514" y="885"/>
      <point x="480" y="829"/>
      <point x="467" y="829" type="curve" smooth="yes"/>
      <point x="466" y="829"/>
      <point x="465" y="829"/>
      <point x="464" y="830" type="curve" smooth="yes"/>
      <point x="420" y="877"/>
      <point x="370" y="901"/>
      <point x="312" y="901" type="curve" smooth="yes"/>
      <point x="240" y="901"/>
      <point x="202" y="837"/>
      <point x="202" y="765" type="curve" smooth="yes"/>
      <point x="202" y="676"/>
      <point x="250" y="628"/>
      <point x="330" y="578" type="curve" smooth="yes"/>
      <point x="437" y="511"/>
      <point x="533" y="432"/>
    </contour>
  </outline>
</glyph>
<glyph name="w" format="1">
  <advance width="916"/>
  <unicode hex="0077"/>
  <outline>
    <contour>
      <point x="244" y="0" type="line" smooth="yes"/>
      <point x="230" y="0"/>
      <point x="216" y="19"/>
      <point x="210" y="60" type="curve"/>
      <point x="58" y="940" type="line" smooth="yes"/>
      <point x="56" y="951"/>
      <point x="55" y="962"/>
      <point x="55" y="970" type="curve" smooth="yes"/>
      <point x="55" y="993"/>
      <point x="60" y="1006"/>
      <point x="71" y="1006" type="curve" smooth="yes"/>
      <point x="147" y="1006" type="line" smooth="yes"/>
      <point x="163" y="1006"/>
      <point x="172" y="986"/>
      <point x="179" y="942" type="curve" smooth="yes"/>
      <point x="285" y="224" type="line"/>
      <point x="288" y="217"/>
      <point x="289" y="214"/>
      <point x="290" y="214" type="curve" smooth="yes"/>
      <point x="292" y="214"/>
      <point x="293" y="218"/>
      <point x="294" y="223" type="curve" smooth="yes"/>
      <point x="401" y="943" type="line" smooth="yes"/>
      <point x="408" y="988"/>
      <point x="418" y="1006"/>
      <point x="434" y="1006" type="curve" smooth="yes"/>
      <point x="502" y="1006" type="line" smooth="yes"/>
      <point x="515" y="1006"/>
      <point x="524" y="985"/>
      <point x="531" y="943" type="curve" smooth="yes"/>
      <point x="647" y="222" type="line" smooth="yes"/>
      <point x="648" y="217"/>
      <point x="649" y="215"/>
      <point x="651" y="215" type="curve" smooth="yes"/>
      <point x="653" y="215"/>
      <point x="654" y="219"/>
      <point x="654" y="223" type="curve" smooth="yes"/>
      <point x="742" y="943" type="line" smooth="yes"/>
      <point x="747" y="988"/>
      <point x="759" y="1006"/>
      <point x="775" y="1006" type="curve" smooth="yes"/>
      <point x="846" y="1006" type="line" smooth="yes"/>
      <point x="856" y="1006"/>
      <point x="861" y="994"/>
      <point x="861" y="973" type="curve" smooth="yes"/>
      <point x="861" y="964"/>
      <point x="860" y="954"/>
      <point x="857" y="941" type="curve"/>
      <point x="729" y="60" type="line" smooth="yes"/>
      <point x="722" y="17"/>
      <point x="707" y="0"/>
      <point x="693" y="0" type="curve" smooth="yes"/>
      <point x="608" y="0" type="line" smooth="yes"/>
      <point x="593" y="0"/>
      <point x="579" y="19"/>
      <point x="572" y="61" type="curve" smooth="yes"/>
      <point x="469" y="718" type="line" smooth="yes"/>
      <point x="468" y="723"/>
      <point x="467" y="725"/>
      <point x="466" y="725" type="curve" smooth="yes"/>
      <point x="465" y="725"/>
      <point x="462" y="722"/>
      <point x="461" y="718" type="curve" smooth="yes"/>
      <point x="358" y="61" type="line" smooth="yes"/>
      <point x="351" y="18"/>
      <point x="337" y="0"/>
      <point x="322" y="0" type="curve" smooth="yes"/>
    </contour>
  </outline>
</glyph>
<glyph name="x" format="1">
  <advance width="643"/>
  <unicode hex="0078"/>
  <outline>
    <contour>
      <point x="60" y="0" type="line" smooth="yes"/>
      <point x="55" y="0"/>
      <point x="52" y="13"/>
      <point x="52" y="26" type="curve" smooth="yes"/>
      <point x="52" y="33"/>
      <point x="52" y="41"/>
      <point x="54" y="46" type="curve" smooth="yes"/>
      <point x="87" y="127"/>
      <point x="201" y="394"/>
      <point x="236" y="473" type="curve" smooth="yes"/>
      <point x="237" y="476"/>
      <point x="238" y="481"/>
      <point x="238" y="487" type="curve" smooth="yes"/>
      <point x="238" y="492"/>
      <point x="237" y="498"/>
      <point x="236" y="503" type="curve"/>
      <point x="191" y="608"/>
      <point x="67" y="922"/>
      <point x="53" y="958" type="curve" smooth="yes"/>
      <point x="51" y="963"/>
      <point x="49" y="971"/>
      <point x="49" y="978" type="curve" smooth="yes"/>
      <point x="49" y="992"/>
      <point x="54" y="1006"/>
      <point x="59" y="1006" type="curve" smooth="yes"/>
      <point x="154" y="1006" type="line" smooth="yes"/>
      <point x="170" y="1006"/>
      <point x="178" y="986"/>
      <point x="190" y="956" type="curve" smooth="yes"/>
      <point x="317" y="631" type="line" smooth="yes"/>
      <point x="319" y="627"/>
      <point x="321" y="624"/>
      <point x="323" y="624" type="curve" smooth="yes"/>
      <point x="325" y="624"/>
      <point x="328" y="626"/>
      <point x="330" y="630" type="curve" smooth="yes"/>
      <point x="443" y="958" type="line" smooth="yes"/>
      <point x="453" y="988"/>
      <point x="468" y="1006"/>
      <point x="484" y="1006" type="curve" smooth="yes"/>
      <point x="572" y="1006" type="line" smooth="yes"/>
      <point x="577" y="1006"/>
      <point x="581" y="994"/>
      <point x="581" y="981" type="curve" smooth="yes"/>
      <point x="581" y="973"/>
      <point x="580" y="965"/>
      <point x="577" y="960" type="curve"/>
      <point x="553" y="897"/>
      <point x="438" y="641"/>
      <point x="400" y="551" type="curve" smooth="yes"/>
      <point x="398" y="547"/>
      <point x="396" y="543"/>
      <point x="396" y="536" type="curve" smooth="yes"/>
      <point x="396" y="531"/>
      <point x="398" y="524"/>
      <point x="400" y="519" type="curve" smooth="yes"/>
      <point x="429" y="450"/>
      <point x="558" y="142"/>
      <point x="596" y="48" type="curve" smooth="yes"/>
      <point x="599" y="42"/>
      <point x="600" y="35"/>
      <point x="600" y="28" type="curve" smooth="yes"/>
      <point x="600" y="14"/>
      <point x="596" y="0"/>
      <point x="591" y="0" type="curve" smooth="yes"/>
      <point x="512" y="0" type="line" smooth="yes"/>
      <point x="496" y="0"/>
      <point x="478" y="21"/>
      <point x="467" y="50" type="curve"/>
      <point x="455" y="76"/>
      <point x="368" y="284"/>
      <point x="333" y="365" type="curve" smooth="yes"/>
      <point x="331" y="369"/>
      <point x="329" y="373"/>
      <point x="325" y="373" type="curve" smooth="yes"/>
      <point x="323" y="373"/>
      <point x="321" y="371"/>
      <point x="316" y="365" type="curve"/>
      <point x="285" y="286"/>
      <point x="209" y="78"/>
      <point x="196" y="47" type="curve"/>
      <point x="182" y="18"/>
      <point x="167" y="0"/>
      <point x="151" y="0" type="curve" smooth="yes"/>
    </contour>
  </outline>
</glyph>
<glyph name="z" format="1">
  <advance width="540"/>
  <unicode hex="007A"/>
  <outline>
    <contour>
      <point x="93" y="0" type="line" smooth="yes"/>
      <point x="86" y="0"/>
      <point x="76" y="6"/>
      <point x="76" y="22" type="curve" smooth="yes"/>
      <point x="76" y="105" type="line" smooth="yes"/>
      <point x="76" y="128"/>
      <point x="81" y="144"/>
      <point x="90" y="169" type="curve" smooth="yes"/>
      <point x="338" y="881" type="line"/>
      <point x="89" y="881" type="line" smooth="yes"/>
      <point x="82" y="881"/>
      <point x="77" y="886"/>
      <point x="77" y="906" type="curve" smooth="yes"/>
      <point x="77" y="982" type="line" smooth="yes"/>
      <point x="77" y="998"/>
      <point x="82" y="1006"/>
      <point x="89" y="1006" type="curve" smooth="yes"/>
      <point x="458" y="1006" type="line" smooth="yes"/>
      <point x="465" y="1006"/>
      <point x="475" y="999"/>
      <point x="475" y="982" type="curve" smooth="yes"/>
      <point x="475" y="886" type="line" smooth="yes"/>
      <point x="475" y="863"/>
      <point x="470" y="844"/>
      <point x="465" y="829" type="curve" smooth="yes"/>
      <point x="220" y="116" type="line"/>
      <point x="474" y="116" type="line" smooth="yes"/>
      <point x="479" y="116"/>
      <point x="486" y="110"/>
      <point x="486" y="92" type="curve" smooth="yes"/>
      <point x="486" y="23" type="line" smooth="yes"/>
      <point x="486" y="6"/>
      <point x="479" y="0"/>
      <point x="474" y="0" type="curve" smooth="yes"/>
    </contour>
  </outline>
</glyph>
<glyph name="bar" format="1">
  <advance width="313"/>
  <unicode hex="007C"/>
  <outline>
    <contour>
      <point x="140" y="-150" type="line" smooth="yes"/>
      <point x="124" y="-150"/>
      <point x="112" y="-127"/>
      <point x="112" y="-84" type="curve" smooth="yes"/>
      <point x="112" y="1489" type="line" smooth="yes"/>
      <point x="112" y="1532"/>
      <point x="124" y="1555"/>
      <point x="140" y="1555" type="curve" smooth="yes"/>
      <point x="174" y="1555" type="line" smooth="yes"/>
      <point x="189" y="1555"/>
      <point x="200" y="1532"/>
      <point x="200" y="1489" type="curve" smooth="yes"/>
      <point x="200" y="-84" type="line" smooth="yes"/>
      <point x="200" y="-127"/>
      <point x="189" y="-150"/>
      <point x="174" y="-150" type="curve" smooth="yes"/>
    </contour>
  </outline>
</glyph>
<glyph name="asciitilde" format="1">
  <advance width="816"/>
  <unicode hex="007E"/>
  <outline>
    <contour>
      <point x="48" y="619" type="line" smooth="yes"/>
      <point x="48" y="637"/>
      <point x="76" y="656"/>
      <point x="93" y="656" type="curve" smooth="yes"/>
      <point x="110" y="656"/>
      <point x="114" y="643"/>
      <point x="118" y="636" type="curve" smooth="yes"/>
      <point x="170" y="554"/>
      <point x="193" y="542"/>
      <point x="249" y="542" type="curve" smooth="yes"/>
      <point x="328" y="542"/>
      <point x="495" y="657"/>
      <point x="583" y="657" type="curve" smooth="yes"/>
      <point x="677" y="657"/>
      <point x="707" y="605"/>
      <point x="761" y="512" type="curve" smooth="yes"/>
      <point x="766" y="504"/>
      <point x="768" y="495"/>
      <point x="768" y="485" type="curve" smooth="yes"/>
      <point x="768" y="451"/>
      <point x="763" y="441"/>
      <point x="727" y="438" type="curve" smooth="yes"/>
      <point x="713" y="436"/>
      <point x="703" y="446"/>
      <point x="696" y="458" type="curve"/>
      <point x="665" y="498"/>
      <point x="648" y="534"/>
      <point x="597" y="534" type="curve" smooth="yes"/>
      <point x="504" y="534"/>
      <point x="378" y="418"/>
      <point x="253" y="418" type="curve" smooth="yes"/>
      <point x="135" y="418"/>
      <point x="99" y="498"/>
      <point x="59" y="577" type="curve"/>
      <point x="52" y="588"/>
      <point x="48" y="599"/>
      <point x="48" y="610" type="curve" smooth="yes"/>
    </contour>
  </outline>
</glyph>
<glyph name="cent" format="1">
  <advance width="558"/>
  <unicode hex="00A2"/>
  <outline>
    <contour>
      <point x="354" y="110" type="curve"/>
      <point x="354" y="897" type="line"/>
      <point x="288" y="882"/>
      <point x="225" y="817"/>
      <point x="225" y="508" type="curve" smooth="yes"/>
      <point x="225" y="196"/>
      <point x="282" y="124"/>
    </contour>
    <contour>
      <point x="501" y="983" type="curve" smooth="yes"/>
      <point x="501" y="897" type="line" smooth="yes"/>
      <point x="501" y="891"/>
      <point x="495" y="883"/>
      <point x="491" y="883" type="curve" smooth="yes"/>
      <point x="467" y="888"/>
      <point x="441" y="897"/>
      <point x="419" y="899" type="curve"/>
      <point x="419" y="108" type="line"/>
      <point x="444" y="110"/>
      <point x="468" y="117"/>
      <point x="490" y="124" type="curve"/>
      <point x="494" y="123"/>
      <point x="502" y="112"/>
      <point x="502" y="106" type="curve" smooth="yes"/>
      <point x="502" y="26" type="line" smooth="yes"/>
      <point x="502" y="-2"/>
      <point x="444" y="-5"/>
      <point x="419" y="-8" type="curve"/>
      <point x="419" y="-134" type="line" smooth="yes"/>
      <point x="419" y="-171"/>
      <point x="412" y="-187"/>
      <point x="397" y="-187" type="curve" smooth="yes"/>
      <point x="376" y="-187" type="line" smooth="yes"/>
      <point x="362" y="-187"/>
      <point x="354" y="-171"/>
      <point x="354" y="-134" type="curve" smooth="yes"/>
      <point x="354" y="-11" type="line"/>
      <point x="221" y="-5"/>
      <point x="81" y="66"/>
      <point x="81" y="508" type="curve" smooth="yes"/>
      <point x="81" y="939"/>
      <point x="221" y="1015"/>
      <point x="354" y="1018" type="curve"/>
      <point x="354" y="1182" type="line" smooth="yes"/>
      <point x="354" y="1217"/>
      <point x="362" y="1232"/>
      <point x="376" y="1232" type="curve" smooth="yes"/>
      <point x="397" y="1232" type="line" smooth="yes"/>
      <point x="412" y="1232"/>
      <point x="419" y="1217"/>
      <point x="419" y="1182" type="curve" smooth="yes"/>
      <point x="419" y="1013" type="line"/>
      <point x="436" y="1011"/>
      <point x="501" y="1005"/>
    </contour>
  </outline>
</glyph>
<glyph name="yen" format="1">
  <advance width="693"/>
  <unicode hex="00A5"/>
  <outline>
    <contour>
      <point x="293" y="0" type="line" smooth="yes"/>
      <point x="278" y="0"/>
      <point x="269" y="9"/>
      <point x="269" y="52" type="curve" smooth="yes"/>
      <point x="269" y="347" type="line"/>
      <point x="128" y="347" type="line" smooth="yes"/>
      <point x="113" y="347"/>
      <point x="106" y="352"/>
      <point x="106" y="384" type="curve" smooth="yes"/>
      <point x="106" y="436" type="line" smooth="yes"/>
      <point x="106" y="468"/>
      <point x="113" y="473"/>
      <point x="128" y="473" type="curve" smooth="yes"/>
      <point x="261" y="473" type="line"/>
      <point x="252" y="569" type="line"/>
      <point x="128" y="569" type="line" smooth="yes"/>
      <point x="113" y="569"/>
      <point x="106" y="574"/>
      <point x="106" y="606" type="curve" smooth="yes"/>
      <point x="106" y="658" type="line" smooth="yes"/>
      <point x="106" y="690"/>
      <point x="113" y="695"/>
      <point x="128" y="695" type="curve" smooth="yes"/>
      <point x="226" y="695" type="line"/>
      <point x="42" y="1379" type="line" smooth="yes"/>
      <point x="38" y="1393"/>
      <point x="37" y="1401"/>
      <point x="37" y="1411" type="curve" smooth="yes"/>
      <point x="37" y="1426"/>
      <point x="43" y="1438"/>
      <point x="55" y="1438" type="curve" smooth="yes"/>
      <point x="154" y="1438" type="line" smooth="yes"/>
      <point x="170" y="1438"/>
      <point x="188" y="1423"/>
      <point x="196" y="1390" type="curve" smooth="yes"/>
      <point x="352" y="741" type="line"/>
      <point x="362" y="741" type="line"/>
      <point x="518" y="1389" type="line"/>
      <point x="524" y="1420"/>
      <point x="542" y="1438"/>
      <point x="557" y="1438" type="curve" smooth="yes"/>
      <point x="640" y="1438" type="line" smooth="yes"/>
      <point x="652" y="1438"/>
      <point x="658" y="1426"/>
      <point x="658" y="1409" type="curve" smooth="yes"/>
      <point x="658" y="1400"/>
      <point x="657" y="1392"/>
      <point x="653" y="1379" type="curve" smooth="yes"/>
      <point x="471" y="695" type="line"/>
      <point x="565" y="695" type="line" smooth="yes"/>
      <point x="579" y="695"/>
      <point x="588" y="690"/>
      <point x="588" y="658" type="curve" smooth="yes"/>
      <point x="588" y="606" type="line" smooth="yes"/>
      <point x="588" y="574"/>
      <point x="579" y="569"/>
      <point x="565" y="569" type="curve" smooth="yes"/>
      <point x="445" y="569" type="line"/>
      <point x="436" y="473" type="line"/>
      <point x="562" y="473" type="line" smooth="yes"/>
      <point x="576" y="473"/>
      <point x="584" y="468"/>
      <point x="584" y="436" type="curve" smooth="yes"/>
      <point x="584" y="384" type="line" smooth="yes"/>
      <point x="584" y="352"/>
      <point x="576" y="347"/>
      <point x="562" y="347" type="curve" smooth="yes"/>
      <point x="429" y="347" type="line"/>
      <point x="429" y="52" type="line" smooth="yes"/>
      <point x="429" y="9"/>
      <point x="420" y="0"/>
      <point x="405" y="0" type="curve" smooth="yes"/>
    </contour>
  </outline>
</glyph>
<glyph name="germandbls" format="1">
  <advance width="848"/>
  <unicode hex="00DF"/>
  <outline>
    <contour>
      <point x="200" y="0" type="curve" smooth="yes"/>
      <point x="139" y="0" type="line" smooth="yes"/>
      <point x="124" y="0"/>
      <point x="101" y="2"/>
      <point x="101" y="42" type="curve" smooth="yes"/>
      <point x="101" y="1022" type="line" smooth="yes"/>
      <point x="101" y="1315"/>
      <point x="222" y="1438"/>
      <point x="438" y="1438" type="curve" smooth="yes"/>
      <point x="604" y="1438"/>
      <point x="733" y="1319"/>
      <point x="733" y="1092" type="curve" smooth="yes"/>
      <point x="733" y="961"/>
      <point x="705" y="858"/>
      <point x="582" y="810" type="curve" smooth="yes"/>
      <point x="570" y="805"/>
      <point x="569" y="794"/>
      <point x="583" y="789" type="curve" smooth="yes"/>
      <point x="720" y="742"/>
      <point x="769" y="575"/>
      <point x="769" y="431" type="curve" smooth="yes"/>
      <point x="769" y="112"/>
      <point x="638" y="0"/>
      <point x="390" y="0" type="curve"/>
      <point x="390" y="123" type="line"/>
      <point x="555" y="123"/>
      <point x="625" y="224"/>
      <point x="625" y="423" type="curve" smooth="yes"/>
      <point x="625" y="629"/>
      <point x="542" y="733"/>
      <point x="392" y="733" type="curve" smooth="yes"/>
      <point x="377" y="733"/>
      <point x="369" y="764"/>
      <point x="369" y="794" type="curve" smooth="yes"/>
      <point x="369" y="824"/>
      <point x="376" y="853"/>
      <point x="392" y="853" type="curve" smooth="yes"/>
      <point x="527" y="853"/>
      <point x="595" y="891"/>
      <point x="595" y="1070" type="curve" smooth="yes"/>
      <point x="595" y="1241"/>
      <point x="544" y="1311"/>
      <point x="427" y="1311" type="curve" smooth="yes"/>
      <point x="305" y="1311"/>
      <point x="237" y="1192"/>
      <point x="237" y="1020" type="curve" smooth="yes"/>
      <point x="237" y="43" type="line" smooth="yes"/>
      <point x="237" y="25"/>
      <point x="232" y="0"/>
    </contour>
  </outline>
</glyph>
<glyph name="dcroat" format="1">
  <advance width="758"/>
  <unicode hex="0111"/>
  <outline>
    <contour>
      <point x="511" y="509" type="curve" smooth="yes"/>
      <point x="511" y="777"/>
      <point x="450" y="905"/>
      <point x="365" y="905" type="curve" smooth="yes"/>
      <point x="286" y="905"/>
      <point x="224" y="836"/>
      <point x="224" y="509" type="curve" smooth="yes"/>
      <point x="224" y="177"/>
      <point x="280" y="102"/>
      <point x="366" y="102" type="curve" smooth="yes"/>
      <point x="454" y="102"/>
      <point x="511" y="241"/>
    </contour>
    <contour>
      <point x="336" y="-11" type="curve" smooth="yes"/>
      <point x="217" y="-11"/>
      <point x="79" y="61"/>
      <point x="79" y="502" type="curve" smooth="yes"/>
      <point x="79" y="938"/>
      <point x="204" y="1018"/>
      <point x="331" y="1018" type="curve" smooth="yes"/>
      <point x="404" y="1018"/>
      <point x="463" y="970"/>
      <point x="502" y="862" type="curve" smooth="yes"/>
      <point x="504" y="858"/>
      <point x="507" y="854"/>
      <point x="509" y="851" type="curve" smooth="yes"/>
      <point x="510" y="851"/>
      <point x="512" y="866"/>
      <point x="512" y="870" type="curve" smooth="yes"/>
      <point x="512" y="1179" type="line"/>
      <point x="325" y="1179" type="line" smooth="yes"/>
      <point x="305" y="1179"/>
      <point x="294" y="1187"/>
      <point x="294" y="1213" type="curve" smooth="yes"/>
      <point x="294" y="1235" type="line" smooth="yes"/>
      <point x="294" y="1263"/>
      <point x="305" y="1271"/>
      <point x="325" y="1271" type="curve" smooth="yes"/>
      <point x="512" y="1271" type="line"/>
      <point x="512" y="1369" type="line" smooth="yes"/>
      <point x="512" y="1412"/>
      <point x="521" y="1431"/>
      <point x="537" y="1431" type="curve" smooth="yes"/>
      <point x="631" y="1431" type="line" smooth="yes"/>
      <point x="646" y="1431"/>
      <point x="656" y="1412"/>
      <point x="656" y="1369" type="curve" smooth="yes"/>
      <point x="656" y="1271" type="line"/>
      <point x="724" y="1271" type="line" smooth="yes"/>
      <point x="744" y="1271"/>
      <point x="755" y="1263"/>
      <point x="755" y="1237" type="curve" smooth="yes"/>
      <point x="755" y="1214" type="line" smooth="yes"/>
      <point x="755" y="1187"/>
      <point x="744" y="1179"/>
      <point x="724" y="1179" type="curve" smooth="yes"/>
      <point x="656" y="1179" type="line"/>
      <point x="656" y="67" type="line" smooth="yes"/>
      <point x="656" y="24"/>
      <point x="649" y="0"/>
      <point x="634" y="0" type="curve"/>
      <point x="634" y="0"/>
      <point x="608" y="2"/>
      <point x="607" y="5" type="curve"/>
      <point x="596" y="11"/>
      <point x="586" y="32"/>
      <point x="581" y="63" type="curve" smooth="yes"/>
      <point x="577" y="88"/>
      <point x="561" y="180"/>
      <point x="559" y="200" type="curve" smooth="yes"/>
      <point x="558" y="211"/>
      <point x="556" y="218"/>
      <point x="554" y="220" type="curve"/>
      <point x="552" y="217"/>
      <point x="550" y="213"/>
      <point x="548" y="206" type="curve" smooth="yes"/>
      <point x="508" y="32"/>
      <point x="430" y="-11"/>
    </contour>
  </outline>
</glyph>
<glyph name="dotlessi" format="1">
  <advance width="338"/>
  <unicode hex="0131"/>
  <outline>
    <contour>
      <point x="132" y="0" type="line" smooth="yes"/>
      <point x="117" y="0"/>
      <point x="107" y="18"/>
      <point x="107" y="61" type="curve" smooth="yes"/>
      <point x="107" y="946" type="line" smooth="yes"/>
      <point x="107" y="989"/>
      <point x="117" y="1006"/>
      <point x="132" y="1006" type="curve" smooth="yes"/>
      <point x="219" y="1006" type="line" smooth="yes"/>
      <point x="234" y="1006"/>
      <point x="243" y="989"/>
      <point x="243" y="946" type="curve" smooth="yes"/>
      <point x="243" y="61" type="line" smooth="yes"/>
      <point x="243" y="18"/>
      <point x="234" y="0"/>
      <point x="219" y="0" type="curve" smooth="yes"/>
    </contour>
  </outline>
</glyph>
<glyph name="kgreenlandic" format="1">
  <advance width="683"/>
  <unicode hex="0138"/>
  <outline>
    <contour>
      <point x="127" y="0" type="line" smooth="yes"/>
      <point x="113" y="0"/>
      <point x="103" y="20"/>
      <point x="103" y="63" type="curve" smooth="yes"/>
      <point x="103" y="944" type="line" smooth="yes"/>
      <point x="103" y="987"/>
      <point x="113" y="1006"/>
      <point x="127" y="1006" type="curve" smooth="yes"/>
      <point x="216" y="1006" type="line" smooth="yes"/>
      <point x="230" y="1006"/>
      <point x="240" y="987"/>
      <point x="240" y="944" type="curve" smooth="yes"/>
      <point x="240" y="542" type="line" smooth="yes"/>
      <point x="240" y="534"/>
      <point x="242" y="528"/>
      <point x="245" y="528" type="curve"/>
      <point x="248" y="531" type="line"/>
      <point x="470" y="948" type="line"/>
      <point x="491" y="990"/>
      <point x="504" y="1006"/>
      <point x="525" y="1006" type="curve" smooth="yes"/>
      <point x="628" y="1006" type="line" smooth="yes"/>
      <point x="634" y="1006"/>
      <point x="638" y="997"/>
      <point x="638" y="985" type="curve" smooth="yes"/>
      <point x="638" y="975"/>
      <point x="634" y="962"/>
      <point x="627" y="949" type="curve" smooth="yes"/>
      <point x="430" y="574" type="line" smooth="yes"/>
      <point x="428" y="569"/>
      <point x="426" y="564"/>
      <point x="426" y="558" type="curve" smooth="yes"/>
      <point x="426" y="552"/>
      <point x="429" y="546"/>
      <point x="430" y="543" type="curve" smooth="yes"/>
      <point x="643" y="61" type="line" smooth="yes"/>
      <point x="648" y="49"/>
      <point x="651" y="37"/>
      <point x="651" y="27" type="curve" smooth="yes"/>
      <point x="651" y="12"/>
      <point x="646" y="0"/>
      <point x="640" y="0" type="curve" smooth="yes"/>
      <point x="530" y="0" type="line" smooth="yes"/>
      <point x="517" y="0"/>
      <point x="505" y="18"/>
      <point x="491" y="54" type="curve" smooth="yes"/>
      <point x="330" y="458" type="line" smooth="yes"/>
      <point x="328" y="463"/>
      <point x="326" y="468"/>
      <point x="322" y="468" type="curve" smooth="yes"/>
      <point x="321" y="468"/>
      <point x="318" y="466"/>
      <point x="316" y="461" type="curve"/>
      <point x="301" y="440"/>
      <point x="247" y="335"/>
      <point x="246" y="334" type="curve" smooth="yes"/>
      <point x="242" y="324"/>
      <point x="240" y="310"/>
      <point x="240" y="294" type="curve" smooth="yes"/>
      <point x="240" y="63" type="line" smooth="yes"/>
      <point x="240" y="20"/>
      <point x="230" y="0"/>
      <point x="216" y="0" type="curve" smooth="yes"/>
    </contour>
  </outline>
</glyph>
<glyph name="uni030F" format="1">
  <advance width="596"/>
  <unicode hex="030F"/>
  <outline>
    <contour>
      <point x="403" y="1168" type="line" smooth="yes"/>
      <point x="389" y="1168"/>
      <point x="386" y="1186"/>
      <point x="380" y="1207" type="curve" smooth="yes"/>
      <point x="308" y="1500" type="line" smooth="yes"/>
      <point x="306" y="1512"/>
      <point x="304" y="1524"/>
      <point x="304" y="1534" type="curve" smooth="yes"/>
      <point x="304" y="1553"/>
      <point x="310" y="1565"/>
      <point x="319" y="1565" type="curve" smooth="yes"/>
      <point x="382" y="1565" type="line" smooth="yes"/>
      <point x="397" y="1565"/>
      <point x="410" y="1553"/>
      <point x="412" y="1510" type="curve"/>
      <point x="433" y="1235" type="line" smooth="yes"/>
      <point x="434" y="1221"/>
      <point x="436" y="1206"/>
      <point x="436" y="1194" type="curve" smooth="yes"/>
      <point x="436" y="1175"/>
      <point x="432" y="1168"/>
      <point x="423" y="1168" type="curve" smooth="yes"/>
    </contour>
    <contour>
      <point x="212" y="1168" type="line" smooth="yes"/>
      <point x="198" y="1168"/>
      <point x="195" y="1187"/>
      <point x="189" y="1207" type="curve" smooth="yes"/>
      <point x="116" y="1500" type="line" smooth="yes"/>
      <point x="114" y="1512"/>
      <point x="112" y="1524"/>
      <point x="112" y="1534" type="curve" smooth="yes"/>
      <point x="112" y="1553"/>
      <point x="118" y="1565"/>
      <point x="128" y="1565" type="curve" smooth="yes"/>
      <point x="190" y="1565" type="line" smooth="yes"/>
      <point x="206" y="1565"/>
      <point x="218" y="1553"/>
      <point x="221" y="1510" type="curve" smooth="yes"/>
      <point x="242" y="1235" type="line"/>
      <point x="242" y="1221"/>
      <point x="244" y="1206"/>
      <point x="244" y="1194" type="curve" smooth="yes"/>
      <point x="244" y="1175"/>
      <point x="241" y="1168"/>
      <point x="233" y="1168" type="curve" smooth="yes"/>
    </contour>
  </outline>
</glyph>
<glyph name="uni0311" format="1">
  <advance width="1403"/>
  <unicode hex="0311"/>
  <outline>
    <contour>
      <point x="427" y="1294" type="line"/>
      <point x="428" y="1423"/>
      <point x="521" y="1480"/>
      <point x="613" y="1480" type="curve" smooth="yes"/>
      <point x="706" y="1480"/>
      <point x="797" y="1424"/>
      <point x="798" y="1294" type="curve"/>
      <point x="719" y="1294" type="line"/>
      <point x="719" y="1364"/>
      <point x="666" y="1392"/>
      <point x="612" y="1392" type="curve" smooth="yes"/>
      <point x="558" y="1392"/>
      <point x="504" y="1364"/>
      <point x="504" y="1294" type="curve"/>
    </contour>
  </outline>
</glyph>
<glyph name="quoteleft" format="1">
  <advance width="327"/>
  <unicode hex="2018"/>
  <outline>
    <contour>
      <point x="115" y="874" type="line" smooth="yes"/>
      <point x="99" y="874"/>
      <point x="88" y="899"/>
      <point x="88" y="942" type="curve" smooth="yes"/>
      <point x="88" y="1121" type="line" smooth="yes"/>
      <point x="88" y="1358"/>
      <point x="167" y="1481"/>
      <point x="215" y="1504" type="curve" smooth="yes"/>
      <point x="217" y="1505"/>
      <point x="218" y="1505"/>
      <point x="220" y="1505" type="curve" smooth="yes"/>
      <point x="230" y="1505"/>
      <point x="239" y="1490"/>
      <point x="239" y="1459" type="curve" smooth="yes"/>
      <point x="239" y="1444" type="line" smooth="yes"/>
      <point x="239" y="1390"/>
      <point x="235" y="1394"/>
      <point x="217" y="1369" type="curve" smooth="yes"/>
      <point x="188" y="1330"/>
      <point x="173" y="1254"/>
      <point x="173" y="1212" type="curve" smooth="yes"/>
      <point x="173" y="1196"/>
      <point x="174" y="1185"/>
      <point x="179" y="1185" type="curve" smooth="yes"/>
      <point x="218" y="1185" type="line" smooth="yes"/>
      <point x="231" y="1185"/>
      <point x="239" y="1168"/>
      <point x="239" y="1130" type="curve" smooth="yes"/>
      <point x="239" y="935" type="line" smooth="yes"/>
      <point x="239" y="892"/>
      <point x="232" y="874"/>
      <point x="218" y="874" type="curve" smooth="yes"/>
    </contour>
  </outline>
</glyph>
<glyph name="daggerdbl" format="1">
  <advance width="590"/>
  <unicode hex="2021"/>
  <outline>
    <contour>
      <point x="260" y="0" type="line" smooth="yes"/>
      <point x="245" y="0"/>
      <point x="236" y="15"/>
      <point x="236" y="58" type="curve" smooth="yes"/>
      <point x="236" y="388" type="line"/>
      <point x="-24" y="388" type="line" smooth="yes"/>
      <point x="-67" y="388"/>
      <point x="-77" y="398"/>
      <point x="-77" y="412" type="curve" smooth="yes"/>
      <point x="-77" y="499" type="line" smooth="yes"/>
      <point x="-77" y="514"/>
      <point x="-67" y="524"/>
      <point x="-24" y="524" type="curve" smooth="yes"/>
      <point x="236" y="524" type="line"/>
      <point x="236" y="951" type="line"/>
      <point x="-24" y="951" type="line" smooth="yes"/>
      <point x="-67" y="951"/>
      <point x="-77" y="960"/>
      <point x="-77" y="974" type="curve" smooth="yes"/>
      <point x="-77" y="1061" type="line" smooth="yes"/>
      <point x="-77" y="1076"/>
      <point x="-67" y="1087"/>
      <point x="-24" y="1087" type="curve" smooth="yes"/>
      <point x="236" y="1087" type="line"/>
      <point x="236" y="1392" type="line" smooth="yes"/>
      <point x="236" y="1435"/>
      <point x="245" y="1455"/>
      <point x="260" y="1455" type="curve" smooth="yes"/>
      <point x="347" y="1455" type="line" smooth="yes"/>
      <point x="362" y="1455"/>
      <point x="372" y="1435"/>
      <point x="372" y="1392" type="curve" smooth="yes"/>
      <point x="372" y="1087" type="line"/>
      <point x="610" y="1087" type="line" smooth="yes"/>
      <point x="653" y="1087"/>
      <point x="667" y="1076"/>
      <point x="667" y="1061" type="curve" smooth="yes"/>
      <point x="667" y="974" type="line" smooth="yes"/>
      <point x="667" y="960"/>
      <point x="653" y="951"/>
      <point x="610" y="951" type="curve" smooth="yes"/>
      <point x="372" y="951" type="line"/>
      <point x="372" y="524" type="line"/>
      <point x="610" y="524" type="line" smooth="yes"/>
      <point x="653" y="524"/>
      <point x="667" y="514"/>
      <point x="667" y="499" type="curve" smooth="yes"/>
      <point x="667" y="412" type="line" smooth="yes"/>
      <point x="667" y="398"/>
      <point x="653" y="388"/>
      <point x="610" y="388" type="curve" smooth="yes"/>
      <point x="372" y="388" type="line"/>
      <point x="372" y="58" type="line" smooth="yes"/>
      <point x="372" y="15"/>
      <point x="362" y="0"/>
      <point x="347" y="0" type="curve" smooth="yes"/>
    </contour>
  </outline>
</glyph>
<glyph name="bullet" format="1">
  <advance width="1117"/>
  <unicode hex="2022"/>
  <outline>
    <contour>
      <point x="558" y="655" type="curve" smooth="yes"/>
      <point x="306" y="655"/>
      <point x="211" y="841"/>
      <point x="211" y="1001" type="curve" smooth="yes"/>
      <point x="211" y="1171"/>
      <point x="306" y="1352"/>
      <point x="558" y="1352" type="curve" smooth="yes"/>
      <point x="810" y="1352"/>
      <point x="904" y="1171"/>
      <point x="904" y="1001" type="curve" smooth="yes"/>
      <point x="904" y="841"/>
      <point x="810" y="655"/>
    </contour>
  </outline>
</glyph>
<glyph name="Euro" format="1">
  <advance width="699"/>
  <unicode hex="20AC"/>
  <outline>
    <contour>
      <point x="475" y="-16" type="curve" smooth="yes"/>
      <point x="301" y="-16"/>
      <point x="129" y="26"/>
      <point x="95" y="524" type="curve"/>
      <point x="48" y="524" type="line" smooth="yes"/>
      <point x="33" y="524"/>
      <point x="25" y="526"/>
      <point x="25" y="569" type="curve" smooth="yes"/>
      <point x="25" y="598" type="line" smooth="yes"/>
      <point x="25" y="641"/>
      <point x="33" y="643"/>
      <point x="48" y="643" type="curve" smooth="yes"/>
      <point x="89" y="643" type="line"/>
      <point x="88" y="668"/>
      <point x="88" y="694"/>
      <point x="88" y="720" type="curve" smooth="yes"/>
      <point x="88" y="747"/>
      <point x="89" y="774"/>
      <point x="89" y="799" type="curve"/>
      <point x="48" y="799" type="line" smooth="yes"/>
      <point x="33" y="799"/>
      <point x="25" y="801"/>
      <point x="25" y="844" type="curve" smooth="yes"/>
      <point x="25" y="873" type="line" smooth="yes"/>
      <point x="25" y="916"/>
      <point x="33" y="918"/>
      <point x="48" y="918" type="curve" smooth="yes"/>
      <point x="95" y="918" type="line"/>
      <point x="131" y="1397"/>
      <point x="305" y="1455"/>
      <point x="482" y="1455" type="curve" smooth="yes"/>
      <point x="533" y="1455"/>
      <point x="627" y="1447"/>
      <point x="641" y="1411" type="curve"/>
      <point x="641" y="1315" type="line" smooth="yes"/>
      <point x="641" y="1304"/>
      <point x="638" y="1303"/>
      <point x="634" y="1303" type="curve" smooth="yes"/>
      <point x="631" y="1303"/>
      <point x="575" y="1323"/>
      <point x="509" y="1323" type="curve" smooth="yes"/>
      <point x="389" y="1323"/>
      <point x="283" y="1273"/>
      <point x="256" y="918" type="curve"/>
      <point x="426" y="918" type="line" smooth="yes"/>
      <point x="441" y="918"/>
      <point x="449" y="916"/>
      <point x="449" y="873" type="curve" smooth="yes"/>
      <point x="449" y="844" type="line" smooth="yes"/>
      <point x="449" y="801"/>
      <point x="441" y="799"/>
      <point x="426" y="799" type="curve" smooth="yes"/>
      <point x="250" y="799" type="line"/>
      <point x="249" y="774"/>
      <point x="249" y="748"/>
      <point x="249" y="720" type="curve" smooth="yes"/>
      <point x="249" y="693"/>
      <point x="249" y="668"/>
      <point x="250" y="643" type="curve"/>
      <point x="426" y="643" type="line" smooth="yes"/>
      <point x="441" y="643"/>
      <point x="449" y="641"/>
      <point x="449" y="598" type="curve" smooth="yes"/>
      <point x="449" y="569" type="line" smooth="yes"/>
      <point x="449" y="526"/>
      <point x="441" y="524"/>
      <point x="426" y="524" type="curve" smooth="yes"/>
      <point x="255" y="524" type="line"/>
      <point x="277" y="163"/>
      <point x="370" y="115"/>
      <point x="493" y="115" type="curve" smooth="yes"/>
      <point x="539" y="115"/>
      <point x="586" y="123"/>
      <point x="620" y="134" type="curve"/>
      <point x="625" y="134"/>
      <point x="628" y="126"/>
      <point x="628" y="117" type="curve" smooth="yes"/>
      <point x="628" y="23" type="line" smooth="yes"/>
      <point x="628" y="-16"/>
      <point x="502" y="-16"/>
    </contour>
  </outline>
</glyph>
<glyph name="infinity" format="1">
  <advance width="866"/>
  <unicode hex="221E"/>
  <outline>
    <contour>
      <point x="489" y="722" type="curve"/>
      <point x="529" y="670"/>
      <point x="588" y="629"/>
      <point x="634" y="629" type="curve" smooth="yes"/>
      <point x="685" y="629"/>
      <point x="733" y="663"/>
      <point x="733" y="721" type="curve" smooth="yes"/>
      <point x="733" y="779"/>
      <point x="685" y="821"/>
      <point x="634" y="821" type="curve" smooth="yes"/>
      <point x="586" y="821"/>
      <point x="528" y="777"/>
    </contour>
    <contour>
      <point x="68" y="725" type="curve" smooth="yes"/>
      <point x="68" y="857"/>
      <point x="142" y="944"/>
      <point x="246" y="944" type="curve" smooth="yes"/>
      <point x="325" y="944"/>
      <point x="384" y="887"/>
      <point x="435" y="821" type="curve"/>
      <point x="487" y="887"/>
      <point x="545" y="944"/>
      <point x="620" y="944" type="curve" smooth="yes"/>
      <point x="724" y="944"/>
      <point x="798" y="853"/>
      <point x="798" y="721" type="curve" smooth="yes"/>
      <point x="798" y="589"/>
      <point x="724" y="506"/>
      <point x="620" y="506" type="curve" smooth="yes"/>
      <point x="544" y="506"/>
      <point x="488" y="560"/>
      <point x="439" y="623" type="curve"/>
      <point x="390" y="560"/>
      <point x="331" y="506"/>
      <point x="246" y="506" type="curve" smooth="yes"/>
      <point x="142" y="506"/>
      <point x="68" y="593"/>
    </contour>
    <contour>
      <point x="133" y="725" type="curve" smooth="yes"/>
      <point x="133" y="667"/>
      <point x="181" y="629"/>
      <point x="232" y="629" type="curve" smooth="yes"/>
      <point x="279" y="629"/>
      <point x="341" y="672"/>
      <point x="383" y="726" type="curve"/>
      <point x="343" y="779"/>
      <point x="282" y="821"/>
      <point x="232" y="821" type="curve" smooth="yes"/>
      <point x="181" y="821"/>
      <point x="133" y="783"/>
    </contour>
  </outline>
</glyph>
<glyph name="approxequal" format="1">
  <advance width="816"/>
  <unicode hex="2248"/>
  <outline>
    <contour>
      <point x="723" y="962" type="curve" smooth="yes"/>
      <point x="740" y="962"/>
      <point x="768" y="942"/>
      <point x="768" y="924" type="curve" smooth="yes"/>
      <point x="768" y="916" type="line" smooth="yes"/>
      <point x="768" y="905"/>
      <point x="764" y="893"/>
      <point x="757" y="882" type="curve"/>
      <point x="717" y="803"/>
      <point x="681" y="724"/>
      <point x="563" y="724" type="curve" smooth="yes"/>
      <point x="438" y="724"/>
      <point x="312" y="840"/>
      <point x="219" y="840" type="curve" smooth="yes"/>
      <point x="168" y="840"/>
      <point x="151" y="804"/>
      <point x="120" y="764" type="curve"/>
      <point x="113" y="752"/>
      <point x="103" y="742"/>
      <point x="89" y="744" type="curve" smooth="yes"/>
      <point x="53" y="747"/>
      <point x="48" y="756"/>
      <point x="48" y="790" type="curve" smooth="yes"/>
      <point x="48" y="800"/>
      <point x="50" y="810"/>
      <point x="55" y="818" type="curve" smooth="yes"/>
      <point x="109" y="911"/>
      <point x="139" y="962"/>
      <point x="233" y="962" type="curve" smooth="yes"/>
      <point x="321" y="962"/>
      <point x="488" y="848"/>
      <point x="567" y="848" type="curve" smooth="yes"/>
      <point x="623" y="848"/>
      <point x="646" y="860"/>
      <point x="698" y="942" type="curve" smooth="yes"/>
      <point x="702" y="949"/>
      <point x="706" y="962"/>
    </contour>
    <contour>
      <point x="723" y="656" type="curve" smooth="yes"/>
      <point x="740" y="656"/>
      <point x="768" y="637"/>
      <point x="768" y="619" type="curve" smooth="yes"/>
      <point x="768" y="610" type="line" smooth="yes"/>
      <point x="768" y="599"/>
      <point x="764" y="588"/>
      <point x="757" y="577" type="curve"/>
      <point x="717" y="498"/>
      <point x="681" y="418"/>
      <point x="563" y="418" type="curve" smooth="yes"/>
      <point x="438" y="418"/>
      <point x="312" y="534"/>
      <point x="219" y="534" type="curve" smooth="yes"/>
      <point x="168" y="534"/>
      <point x="151" y="498"/>
      <point x="120" y="458" type="curve"/>
      <point x="113" y="446"/>
      <point x="103" y="436"/>
      <point x="89" y="438" type="curve" smooth="yes"/>
      <point x="53" y="441"/>
      <point x="48" y="451"/>
      <point x="48" y="485" type="curve" smooth="yes"/>
      <point x="48" y="495"/>
      <point x="50" y="504"/>
      <point x="55" y="512" type="curve" smooth="yes"/>
      <point x="109" y="605"/>
      <point x="139" y="657"/>
      <point x="233" y="657" type="curve" smooth="yes"/>
      <point x="321" y="657"/>
      <point x="488" y="542"/>
      <point x="567" y="542" type="curve" smooth="yes"/>
      <point x="623" y="542"/>
      <point x="646" y="554"/>
      <point x="698" y="636" type="curve" smooth="yes"/>
      <point x="702" y="643"/>
      <point x="706" y="656"/>
    </contour>
  </outline>
</glyph>
<glyph name="lessequal" format="1">
  <advance width="895"/>
  <unicode hex="2264"/>
  <outline>
    <contour>
      <point x="574" y="332" type="curve" smooth="yes"/>
      <point x="568" y="332"/>
      <point x="561" y="338"/>
      <point x="552" y="346" type="curve" smooth="yes"/>
      <point x="266" y="606" type="line"/>
      <point x="235" y="643"/>
      <point x="219" y="662"/>
      <point x="219" y="706" type="curve" smooth="yes"/>
      <point x="219" y="741" type="line" smooth="yes"/>
      <point x="219" y="785"/>
      <point x="236" y="802"/>
      <point x="267" y="840" type="curve"/>
      <point x="552" y="1120" type="line" smooth="yes"/>
      <point x="560" y="1127"/>
      <point x="567" y="1131"/>
      <point x="574" y="1131" type="curve" smooth="yes"/>
      <point x="590" y="1131"/>
      <point x="600" y="1114"/>
      <point x="600" y="1088" type="curve" smooth="yes"/>
      <point x="600" y="1045" type="line" smooth="yes"/>
      <point x="600" y="999"/>
      <point x="584" y="983"/>
      <point x="560" y="953" type="curve"/>
      <point x="331" y="739" type="line" smooth="yes"/>
      <point x="326" y="733"/>
      <point x="324" y="727"/>
      <point x="324" y="722" type="curve" smooth="yes"/>
      <point x="324" y="717"/>
      <point x="326" y="711"/>
      <point x="331" y="706" type="curve" smooth="yes"/>
      <point x="559" y="511" type="line"/>
      <point x="584" y="482"/>
      <point x="600" y="470"/>
      <point x="600" y="425" type="curve" smooth="yes"/>
      <point x="600" y="372" type="line" smooth="yes"/>
      <point x="600" y="349"/>
      <point x="590" y="332"/>
    </contour>
    <contour>
      <point x="250" y="99" type="line" smooth="yes"/>
      <point x="229" y="99"/>
      <point x="218" y="108"/>
      <point x="218" y="135" type="curve" smooth="yes"/>
      <point x="218" y="159" type="line" smooth="yes"/>
      <point x="218" y="187"/>
      <point x="229" y="196"/>
      <point x="250" y="196" type="curve" smooth="yes"/>
      <point x="579" y="196" type="line" smooth="yes"/>
      <point x="600" y="196"/>
      <point x="612" y="187"/>
      <point x="612" y="160" type="curve" smooth="yes"/>
      <point x="612" y="136" type="line" smooth="yes"/>
      <point x="612" y="108"/>
      <point x="600" y="99"/>
      <point x="579" y="99" type="curve" smooth="yes"/>
    </contour>
  </outline>
</glyph>
